<?xml version="1.0" encoding="UTF-8"?>
<!DOCTYPE svg PUBLIC "-//W3C//DTD SVG 1.1//EN" "http://www.w3.org/Graphics/SVG/1.1/DTD/svg11.dtd">
<svg xmlns="http://www.w3.org/2000/svg" version="1.1" width="512px" height="512px" style="shape-rendering:geometricPrecision; text-rendering:geometricPrecision; image-rendering:optimizeQuality; fill-rule:evenodd; clip-rule:evenodd" xmlns:xlink="http://www.w3.org/1999/xlink">
<g><path style="opacity:0.988" fill="#fd7058" d="M 370.5,219.5 C 367.782,216.276 364.782,213.109 361.5,210C 326.31,179.586 290.977,149.419 255.5,119.5C 218.046,151.115 180.713,182.948 143.5,215C 141.859,216.129 140.859,217.629 140.5,219.5C 137.081,221.412 134.081,223.912 131.5,227C 130.833,227.667 130.167,227.667 129.5,227C 124.786,221.074 119.953,215.241 115,209.5C 113.711,207.945 113.044,206.279 113,204.5C 157.48,165.597 202.147,126.93 247,88.5C 247.5,78.172 247.666,67.8387 247.5,57.5C 239.167,57.5 230.833,57.5 222.5,57.5C 222.5,52.1667 222.5,46.8333 222.5,41.5C 230.833,41.5 239.167,41.5 247.5,41.5C 247.5,35.5 247.5,29.5 247.5,23.5C 253.167,23.5 258.833,23.5 264.5,23.5C 264.5,29.5 264.5,35.5 264.5,41.5C 272.833,41.5 281.167,41.5 289.5,41.5C 289.5,46.8333 289.5,52.1667 289.5,57.5C 281.167,57.5 272.833,57.5 264.5,57.5C 264.168,68.1874 264.501,78.8541 265.5,89.5C 310.093,128.049 354.593,166.715 399,205.5C 394.613,214.091 389.113,222.091 382.5,229.5C 378.773,225.767 374.773,222.434 370.5,219.5 Z"/></g>
<g><path style="opacity:0.997" fill="#e0e5e8" d="M 370.5,219.5 C 370.5,230.167 370.5,240.833 370.5,251.5C 370.5,261.833 370.5,272.167 370.5,282.5C 370.5,345.5 370.5,408.5 370.5,471.5C 408.167,471.5 445.833,471.5 483.5,471.5C 491.5,471.5 499.5,471.5 507.5,471.5C 507.5,476.833 507.5,482.167 507.5,487.5C 339.5,487.5 171.5,487.5 3.5,487.5C 3.5,482.167 3.5,476.833 3.5,471.5C 11.5,471.5 19.5,471.5 27.5,471.5C 65.1667,471.5 102.833,471.5 140.5,471.5C 140.5,408.5 140.5,345.5 140.5,282.5C 140.5,272.167 140.5,261.833 140.5,251.5C 140.5,240.833 140.5,230.167 140.5,219.5C 140.859,217.629 141.859,216.129 143.5,215C 180.713,182.948 218.046,151.115 255.5,119.5C 290.977,149.419 326.31,179.586 361.5,210C 364.782,213.109 367.782,216.276 370.5,219.5 Z"/></g>
<g><path style="opacity:1" fill="#3b556a" d="M 191.5,230.5 C 195.287,229.814 198.454,230.814 201,233.5C 201.667,246.5 201.667,259.5 201,272.5C 197.098,277.804 193.098,277.804 189,272.5C 188.333,259.5 188.333,246.5 189,233.5C 190.045,232.627 190.878,231.627 191.5,230.5 Z"/></g>
<g><path style="opacity:1" fill="#3e586d" d="M 221.5,230.5 C 225.909,229.618 229.409,230.952 232,234.5C 232.667,246.833 232.667,259.167 232,271.5C 228.087,277.617 223.754,277.951 219,272.5C 218.333,259.833 218.333,247.167 219,234.5C 219.662,233.016 220.496,231.683 221.5,230.5 Z"/></g>
<g><path style="opacity:1" fill="#3e586d" d="M 252.5,230.5 C 256.684,229.704 259.85,231.037 262,234.5C 262.667,246.833 262.667,259.167 262,271.5C 257.578,278.059 253.245,278.059 249,271.5C 248.333,259.167 248.333,246.833 249,234.5C 249.69,232.65 250.856,231.316 252.5,230.5 Z"/></g>
<g><path style="opacity:1" fill="#3e586d" d="M 282.5,230.5 C 286.684,229.704 289.85,231.037 292,234.5C 292.667,246.833 292.667,259.167 292,271.5C 287.755,278.059 283.422,278.059 279,271.5C 278.333,259.167 278.333,246.833 279,234.5C 280.032,232.973 281.199,231.64 282.5,230.5 Z"/></g>
<g><path style="opacity:1" fill="#3b566a" d="M 312.5,230.5 C 316.287,229.814 319.454,230.814 322,233.5C 322.667,246.5 322.667,259.5 322,272.5C 317.902,277.804 313.902,277.804 310,272.5C 309.333,259.5 309.333,246.5 310,233.5C 311.045,232.627 311.878,231.627 312.5,230.5 Z"/></g>
<g><path style="opacity:0.991" fill="#fd7058" d="M 140.5,251.5 C 140.5,261.833 140.5,272.167 140.5,282.5C 102.617,299.944 64.9508,317.611 27.5,335.5C 21.6178,338.024 15.7845,340.69 10,343.5C 6.7242,335.293 3.2242,327.293 -0.5,319.5C -0.5,318.167 -0.5,316.833 -0.5,315.5C 46.5,294.167 93.5,272.833 140.5,251.5 Z"/></g>
<g><path style="opacity:0.993" fill="#fd7058" d="M 370.5,251.5 C 417.619,272.559 464.619,293.893 511.5,315.5C 511.5,316.833 511.5,318.167 511.5,319.5C 508.113,327.474 504.613,335.474 501,343.5C 495.215,340.69 489.382,338.024 483.5,335.5C 446.049,317.611 408.383,299.944 370.5,282.5C 370.5,272.167 370.5,261.833 370.5,251.5 Z"/></g>
<g><path style="opacity:1" fill="#d4d5da" d="M 140.5,282.5 C 140.5,345.5 140.5,408.5 140.5,471.5C 102.833,471.5 65.1667,471.5 27.5,471.5C 27.5,426.167 27.5,380.833 27.5,335.5C 64.9508,317.611 102.617,299.944 140.5,282.5 Z"/></g>
<g><path style="opacity:0.997" fill="#d4d5da" d="M 370.5,282.5 C 408.383,299.944 446.049,317.611 483.5,335.5C 483.5,380.833 483.5,426.167 483.5,471.5C 445.833,471.5 408.167,471.5 370.5,471.5C 370.5,408.5 370.5,345.5 370.5,282.5 Z"/></g>
<g><path style="opacity:1" fill="#3f6b82" d="M 245.5,349.5 C 273.938,346.803 291.771,359.136 299,386.5C 299.5,415.165 299.667,443.831 299.5,472.5C 270.167,472.5 240.833,472.5 211.5,472.5C 211.333,443.165 211.5,413.831 212,384.5C 216.92,366.749 228.086,355.082 245.5,349.5 Z"/></g>
<g><path style="opacity:1" fill="#3d586c" d="M 82.5,362.5 C 88.9439,361.971 94.1106,364.305 98,369.5C 99.4247,376.385 99.9247,383.385 99.5,390.5C 90.5,390.5 81.5,390.5 72.5,390.5C 72.3338,384.158 72.5005,377.825 73,371.5C 75.4057,367.592 78.5724,364.592 82.5,362.5 Z"/></g>
<g><path style="opacity:1" fill="#3d586c" d="M 421.5,362.5 C 427.944,361.971 433.111,364.305 437,369.5C 438.425,376.385 438.925,383.385 438.5,390.5C 429.5,390.5 420.5,390.5 411.5,390.5C 411.334,384.158 411.5,377.825 412,371.5C 414.294,367.461 417.461,364.461 421.5,362.5 Z"/></g>
<g><path style="opacity:1" fill="#3b556a" d="M 81.5,418.5 C 89.6495,417.257 95.4829,420.257 99,427.5C 99.4995,433.491 99.6662,439.491 99.5,445.5C 90.5,445.5 81.5,445.5 72.5,445.5C 72.3338,439.491 72.5005,433.491 73,427.5C 74.6878,423.315 77.5212,420.315 81.5,418.5 Z"/></g>
<g><path style="opacity:1" fill="#3b556a" d="M 420.5,418.5 C 428.65,417.257 434.483,420.257 438,427.5C 438.499,433.491 438.666,439.491 438.5,445.5C 429.5,445.5 420.5,445.5 411.5,445.5C 411.334,439.491 411.501,433.491 412,427.5C 413.688,423.315 416.521,420.315 420.5,418.5 Z"/></g>
</svg>
